<mxfile host="www.draw.io" modified="2019-12-12T06:23:07.322Z" agent="Mozilla/5.0 (Windows NT 10.0; Win64; x64) AppleWebKit/537.36 (KHTML, like Gecko) Chrome/78.0.3904.108 Safari/537.36" etag="G4OHcPCk3_pEuGJxqJZ3" version="12.3.9" type="github" pages="1">
  <diagram id="wumWJiMeoDz_0mfmLybt" name="Page-1">
    <mxGraphModel dx="910" dy="523" grid="1" gridSize="10" guides="1" tooltips="1" connect="1" arrows="1" fold="1" page="1" pageScale="1" pageWidth="827" pageHeight="1169" math="0" shadow="0">
      <root>
        <mxCell id="0"/>
        <mxCell id="1" parent="0"/>
        <mxCell id="Um-5-mFYSUv20TXECG15-6" style="edgeStyle=orthogonalEdgeStyle;rounded=0;orthogonalLoop=1;jettySize=auto;html=1;entryX=0.5;entryY=0;entryDx=0;entryDy=0;" edge="1" parent="1" source="Um-5-mFYSUv20TXECG15-1" target="Um-5-mFYSUv20TXECG15-2">
          <mxGeometry relative="1" as="geometry"/>
        </mxCell>
        <mxCell id="Um-5-mFYSUv20TXECG15-1" value="选择维护模块" style="rounded=1;whiteSpace=wrap;html=1;" vertex="1" parent="1">
          <mxGeometry x="310" y="100" width="120" height="60" as="geometry"/>
        </mxCell>
        <mxCell id="Um-5-mFYSUv20TXECG15-7" style="edgeStyle=orthogonalEdgeStyle;rounded=0;orthogonalLoop=1;jettySize=auto;html=1;" edge="1" parent="1" source="Um-5-mFYSUv20TXECG15-2" target="Um-5-mFYSUv20TXECG15-3">
          <mxGeometry relative="1" as="geometry"/>
        </mxCell>
        <mxCell id="Um-5-mFYSUv20TXECG15-2" value="输入维护基本信息" style="rounded=0;whiteSpace=wrap;html=1;" vertex="1" parent="1">
          <mxGeometry x="310" y="190" width="120" height="60" as="geometry"/>
        </mxCell>
        <mxCell id="Um-5-mFYSUv20TXECG15-3" value="保存维护计划数据" style="rounded=0;whiteSpace=wrap;html=1;" vertex="1" parent="1">
          <mxGeometry x="310" y="270" width="120" height="60" as="geometry"/>
        </mxCell>
        <mxCell id="Um-5-mFYSUv20TXECG15-9" style="edgeStyle=orthogonalEdgeStyle;rounded=0;orthogonalLoop=1;jettySize=auto;html=1;entryX=0.5;entryY=0;entryDx=0;entryDy=0;" edge="1" parent="1" source="Um-5-mFYSUv20TXECG15-4" target="Um-5-mFYSUv20TXECG15-5">
          <mxGeometry relative="1" as="geometry"/>
        </mxCell>
        <mxCell id="Um-5-mFYSUv20TXECG15-10" style="edgeStyle=orthogonalEdgeStyle;rounded=0;orthogonalLoop=1;jettySize=auto;html=1;" edge="1" parent="1" source="Um-5-mFYSUv20TXECG15-4" target="Um-5-mFYSUv20TXECG15-3">
          <mxGeometry relative="1" as="geometry"/>
        </mxCell>
        <mxCell id="Um-5-mFYSUv20TXECG15-4" value="定时器" style="rounded=0;whiteSpace=wrap;html=1;" vertex="1" parent="1">
          <mxGeometry x="490" y="270" width="120" height="60" as="geometry"/>
        </mxCell>
        <mxCell id="Um-5-mFYSUv20TXECG15-5" value="生成维护任务数据" style="rounded=0;whiteSpace=wrap;html=1;" vertex="1" parent="1">
          <mxGeometry x="490" y="360" width="120" height="60" as="geometry"/>
        </mxCell>
      </root>
    </mxGraphModel>
  </diagram>
</mxfile>
